  0
SECTION
  2
HEADER
  9
$ACADVER
  1
AC1024
  9
$ACADMAINTVER
 70
     6
  9
$DWGCODEPAGE
  3
UNDEFINED
  9
$INSBASE
 10
0.0
 20
0.0
 30
0.0
  9
$EXTMIN
 10
1.000000000000000E+20
 20
1.000000000000000E+20
 30
1.000000000000000E+20
  9
$EXTMAX
 10
-1.000000000000000E+20
 20
-1.000000000000000E+20
 30
-1.000000000000000E+20
  9
$LIMMIN
 10
0.0
 20
0.0
  9
$LIMMAX
 10
12.0
 20
9.0
  9
$ORTHOMODE
 70
     0
  9
$REGENMODE
 70
     1
  9
$FILLMODE
 70
     1
  9
$QTEXTMODE
 70
     0
  9
$MIRRTEXT
 70
     1
  9
$LTSCALE
 40
1.0
  9
$ATTMODE
 70
     1
  9
$TEXTSIZE
 40
0.2
  9
$TRACEWID
 40
0.05
  9
$TEXTSTYLE
  7
Standard
  9
$CLAYER
  8
0
  9
$CELTYPE
  6
ByLayer
  9
$CECOLOR
 62
   256
  9
$CELTSCALE
 40
1.0
  9
$DISPSILH
 70
     0
  9
$DIMSCALE
 40
1.0
  9
$DIMASZ
 40
0.18
  9
$DIMEXO
 40
0.0625
  9
$DIMDLI
 40
0.38
  9
$DIMRND
 40
0.0
  9
$DIMDLE
 40
0.0
  9
$DIMEXE
 40
0.18
  9
$DIMTP
 40
0.0
  9
$DIMTM
 40
0.0
  9
$DIMTXT
 40
0.18
  9
$DIMCEN
 40
0.09
  9
$DIMTSZ
 40
0.0
  9
$DIMTOL
 70
     0
  9
$DIMLIM
 70
     0
  9
$DIMTIH
 70
     1
  9
$DIMTOH
 70
     1
  9
$DIMSE1
 70
     0
  9
$DIMSE2
 70
     0
  9
$DIMTAD
 70
     0
  9
$DIMZIN
 70
     0
  9
$DIMBLK
  1

  9
$DIMASO
 70
     1
  9
$DIMSHO
 70
     1
  9
$DIMPOST
  1

  9
$DIMAPOST
  1

  9
$DIMALT
 70
     0
  9
$DIMALTD
 70
     2
  9
$DIMALTF
 40
25.4
  9
$DIMLFAC
 40
1.0
  9
$DIMTOFL
 70
     0
  9
$DIMTVP
 40
0.0
  9
$DIMTIX
 70
     0
  9
$DIMSOXD
 70
     0
  9
$DIMSAH
 70
     0
  9
$DIMBLK1
  1

  9
$DIMBLK2
  1

  9
$DIMSTYLE
  2
Standard
  9
$DIMCLRD
 70
     0
  9
$DIMCLRE
 70
     0
  9
$DIMCLRT
 70
     0
  9
$DIMTFAC
 40
1.0
  9
$DIMGAP
 40
0.09
  9
$DIMJUST
 70
     0
  9
$DIMSD1
 70
     0
  9
$DIMSD2
 70
     0
  9
$DIMTOLJ
 70
     1
  9
$DIMTZIN
 70
     0
  9
$DIMALTZ
 70
     0
  9
$DIMALTTZ
 70
     0
  9
$DIMUPT
 70
     0
  9
$DIMDEC
 70
     4
  9
$DIMTDEC
 70
     4
  9
$DIMALTU
 70
     2
  9
$DIMALTTD
 70
     2
  9
$DIMTXSTY
  7
Standard
  9
$DIMAUNIT
 70
     0
  9
$DIMADEC
 70
     0
  9
$DIMALTRND
 40
0.0
  9
$DIMAZIN
 70
     0
  9
$DIMDSEP
 70
    46
  9
$DIMATFIT
 70
     3
  9
$DIMFRAC
 70
     0
  9
$DIMLDRBLK
  1

  9
$DIMLUNIT
 70
     2
  9
$DIMLWD
 70
    -2
  9
$DIMLWE
 70
    -2
  9
$DIMTMOVE
 70
     0
  9
$DIMFXL
 40
1.0
  9
$DIMFXLON
 70
     0
  9
$DIMJOGANG
 40
0.7853981633974483
  9
$DIMTFILL
 70
     0
  9
$DIMTFILLCLR
 70
     0
  9
$DIMARCSYM
 70
     0
  9
$DIMLTYPE
  6

  9
$DIMLTEX1
  6

  9
$DIMLTEX2
  6

  9
$DIMTXTDIRECTION
 70
     0
  9
$LUNITS
 70
     2
  9
$LUPREC
 70
     4
  9
$SKETCHINC
 40
0.1
  9
$FILLETRAD
 40
0.5
  9
$AUNITS
 70
     0
  9
$AUPREC
 70
     0
  9
$MENU
  1
.
  9
$ELEVATION
 40
0.0
  9
$PELEVATION
 40
0.0
  9
$THICKNESS
 40
0.0
  9
$LIMCHECK
 70
     0
  9
$CHAMFERA
 40
0.5
  9
$CHAMFERB
 40
0.5
  9
$CHAMFERC
 40
1.0
  9
$CHAMFERD
 40
0.0
  9
$SKPOLY
 70
     0
  9
$TDCREATE
 40
2458659.501516192
  9
$TDUCREATE
 40
2458659.834849537
  9
$TDUPDATE
 40
2458659.501516192
  9
$TDUUPDATE
 40
2458659.834849537
  9
$TDINDWG
 40
0.0000000116
  9
$TDUSRTIMER
 40
0.0000000116
  9
$USRTIMER
 70
     1
  9
$ANGBASE
 50
0.0
  9
$ANGDIR
 70
     0
  9
$PDMODE
 70
     0
  9
$PDSIZE
 40
0.0
  9
$PLINEWID
 40
0.0
  9
$SPLFRAME
 70
     0
  9
$SPLINETYPE
 70
     6
  9
$SPLINESEGS
 70
     8
  9
$HANDSEED
  5
47
  9
$SURFTAB1
 70
     6
  9
$SURFTAB2
 70
     6
  9
$SURFTYPE
 70
     6
  9
$SURFU
 70
     6
  9
$SURFV
 70
     6
  9
$UCSBASE
  2

  9
$UCSNAME
  2

  9
$UCSORG
 10
0.0
 20
0.0
 30
0.0
  9
$UCSXDIR
 10
1.0
 20
0.0
 30
0.0
  9
$UCSYDIR
 10
0.0
 20
1.0
 30
0.0
  9
$UCSORTHOREF
  2

  9
$UCSORTHOVIEW
 70
     0
  9
$UCSORGTOP
 10
0.0
 20
0.0
 30
0.0
  9
$UCSORGBOTTOM
 10
0.0
 20
0.0
 30
0.0
  9
$UCSORGLEFT
 10
0.0
 20
0.0
 30
0.0
  9
$UCSORGRIGHT
 10
0.0
 20
0.0
 30
0.0
  9
$UCSORGFRONT
 10
0.0
 20
0.0
 30
0.0
  9
$UCSORGBACK
 10
0.0
 20
0.0
 30
0.0
  9
$PUCSBASE
  2

  9
$PUCSNAME
  2

  9
$PUCSORG
 10
0.0
 20
0.0
 30
0.0
  9
$PUCSXDIR
 10
1.0
 20
0.0
 30
0.0
  9
$PUCSYDIR
 10
0.0
 20
1.0
 30
0.0
  9
$PUCSORTHOREF
  2

  9
$PUCSORTHOVIEW
 70
     0
  9
$PUCSORGTOP
 10
0.0
 20
0.0
 30
0.0
  9
$PUCSORGBOTTOM
 10
0.0
 20
0.0
 30
0.0
  9
$PUCSORGLEFT
 10
0.0
 20
0.0
 30
0.0
  9
$PUCSORGRIGHT
 10
0.0
 20
0.0
 30
0.0
  9
$PUCSORGFRONT
 10
0.0
 20
0.0
 30
0.0
  9
$PUCSORGBACK
 10
0.0
 20
0.0
 30
0.0
  9
$USERI1
 70
     0
  9
$USERI2
 70
     0
  9
$USERI3
 70
     0
  9
$USERI4
 70
     0
  9
$USERI5
 70
     0
  9
$USERR1
 40
0.0
  9
$USERR2
 40
0.0
  9
$USERR3
 40
0.0
  9
$USERR4
 40
0.0
  9
$USERR5
 40
0.0
  9
$WORLDVIEW
 70
     1
  9
$SHADEDGE
 70
     3
  9
$SHADEDIF
 70
    70
  9
$TILEMODE
 70
     1
  9
$MAXACTVP
 70
    64
  9
$PINSBASE
 10
0.0
 20
0.0
 30
0.0
  9
$PLIMCHECK
 70
     0
  9
$PEXTMIN
 10
1.000000000000000E+20
 20
1.000000000000000E+20
 30
1.000000000000000E+20
  9
$PEXTMAX
 10
-1.000000000000000E+20
 20
-1.000000000000000E+20
 30
-1.000000000000000E+20
  9
$PLIMMIN
 10
0.0
 20
0.0
  9
$PLIMMAX
 10
12.0
 20
9.0
  9
$UNITMODE
 70
     0
  9
$VISRETAIN
 70
     1
  9
$PLINEGEN
 70
     0
  9
$PSLTSCALE
 70
     1
  9
$TREEDEPTH
 70
  3020
  9
$CMLSTYLE
  2
Standard
  9
$CMLJUST
 70
     0
  9
$CMLSCALE
 40
1.0
  9
$PROXYGRAPHICS
 70
     1
  9
$MEASUREMENT
 70
     0
  9
$CELWEIGHT
370
    -1
  9
$ENDCAPS
280
     0
  9
$JOINSTYLE
280
     0
  9
$LWDISPLAY
290
     1
  9
$INSUNITS
 70
     1
  9
$HYPERLINKBASE
  1

  9
$STYLESHEET
  1

  9
$XEDIT
290
     1
  9
$CEPSNTYPE
380
     0
  9
$PSTYLEMODE
290
     1
  9
$FINGERPRINTGUID
  2
{C3C53585-A6D1-160C-F92C-2EDD410E18A2}
  9
$VERSIONGUID
  2
{FAEB1C32-E019-11D5-929B-00C0DF256EC4}
  9
$EXTNAMES
290
     1
  9
$PSVPSCALE
 40
0.0
  9
$OLESTARTUP
290
     0
  9
$SORTENTS
280
   127
  9
$INDEXCTL
280
     0
  9
$HIDETEXT
280
     1
  9
$XCLIPFRAME
280
     2
  9
$HALOGAP
280
     0
  9
$OBSCOLOR
 70
   257
  9
$OBSLTYPE
280
     0
  9
$INTERSECTIONDISPLAY
280
     0
  9
$INTERSECTIONCOLOR
 70
   257
  9
$DIMASSOC
280
     2
  9
$PROJECTNAME
  1

  9
$CAMERADISPLAY
290
     0
  9
$LENSLENGTH
 40
50.0
  9
$CAMERAHEIGHT
 40
0.0
  9
$STEPSPERSEC
 40
2.0
  9
$STEPSIZE
 40
6.0
  9
$3DDWFPREC
 40
2.0
  9
$PSOLWIDTH
 40
0.25
  9
$PSOLHEIGHT
 40
4.0
  9
$LOFTANG1
 40
1.570796326794897
  9
$LOFTANG2
 40
1.570796326794897
  9
$LOFTMAG1
 40
0.0
  9
$LOFTMAG2
 40
0.0
  9
$LOFTPARAM
 70
     7
  9
$LOFTNORMALS
280
     1
  9
$LATITUDE
 40
37.795
  9
$LONGITUDE
 40
-122.394
  9
$NORTHDIRECTION
 40
0.0
  9
$TIMEZONE
 70
 -8000
  9
$LIGHTGLYPHDISPLAY
280
     1
  9
$TILEMODELIGHTSYNCH
280
     1
  9
$CMATERIAL
347
3C
  9
$SOLIDHIST
280
     1
  9
$SHOWHIST
280
     1
  9
$DWFFRAME
280
     2
  9
$DGNFRAME
280
     2
  9
$REALWORLDSCALE
290
     1
  9
$INTERFERECOLOR
 62
   256
  9
$CSHADOW
280
     0
  9
$SHADOWPLANELOCATION
 40
0.0
  0
ENDSEC
  0
SECTION
  2
CLASSES
  0
CLASS
  1
ACDBDICTIONARYWDFLT
  2
AcDbDictionaryWithDefault
  3
ObjectDBX Classes
 90
        0
 91
        4
280
     0
281
     0
  0
CLASS
  1
VISUALSTYLE
  2
AcDbVisualStyle
  3
ObjectDBX Classes
 90
     4095
 91
        4
280
     0
281
     0
  0
CLASS
  1
MATERIAL
  2
AcDbMaterial
  3
ObjectDBX Classes
 90
     1153
 91
        4
280
     0
281
     0
  0
CLASS
  1
SUN
  2
AcDbSun
  3
SCENEOE
 90
     1024
 91
        4
280
     0
281
     0
  0
ENDSEC
  0
SECTION
  2
TABLES
  0
TABLE
  2
VPORT
  5
8
330
0
100
AcDbSymbolTable
 70
     1
  0
VPORT
  5
29
330
8
100
AcDbSymbolTableRecord
100
AcDbViewportTableRecord
  2
*Active
 70
     0
 10
0.0
 20
0.0
 11
1.0
 21
1.0
 12
0.0
 22
0.0
 13
0.0
 23
0.0
 14
0.5
 24
0.5
 15
0.5
 25
0.5
 16
0.0
 26
0.0
 36
1.0
 17
400.0
 27
-175.5
 37
0.0
 40
351.0
 41
2.279202279202279
 42
50.0
 43
0.0
 44
0.0
 50
0.0
 51
0.0
 71
     0
 72
   100
 73
     1
 74
     3
 75
     0
 76
     0
 77
     0
 78
     0
281
     0
 65
     1
110
0.0
120
0.0
130
0.0
111
1.0
121
0.0
131
0.0
112
0.0
122
1.0
132
0.0
 79
     0
146
0.0
 60
     3
 61
     5
292
     1
282
     1
141
0.0
142
0.0
 63
   250
361
3F
  0
ENDTAB
  0
TABLE
  2
LTYPE
  5
5
330
0
100
AcDbSymbolTable
 70
     1
  0
LTYPE
  5
14
330
5
100
AcDbSymbolTableRecord
100
AcDbLinetypeTableRecord
  2
ByBlock
 70
     0
  3

 72
    65
 73
     0
 40
0.0
  0
LTYPE
  5
15
330
5
100
AcDbSymbolTableRecord
100
AcDbLinetypeTableRecord
  2
ByLayer
 70
     0
  3

 72
    65
 73
     0
 40
0.0
  0
LTYPE
  5
16
330
5
100
AcDbSymbolTableRecord
100
AcDbLinetypeTableRecord
  2
Continuous
 70
     0
  3
Solid line
 72
    65
 73
     0
 40
0.0
  0
ENDTAB
  0
TABLE
  2
LAYER
  5
2
330
0
100
AcDbSymbolTable
 70
     2
  0
LAYER
  5
10
330
2
100
AcDbSymbolTableRecord
100
AcDbLayerTableRecord
  2
0
 70
     0
 62
     7
  6
Continuous
370
    -3
390
F
347
3E
  0
LAYER
  5
40
330
2
100
AcDbSymbolTableRecord
100
AcDbLayerTableRecord
  2
Layer 1
 70
     0
 62
     7
  6
Continuous
370
    -3
390
F
347
3E
  0
ENDTAB
  0
TABLE
  2
STYLE
  5
3
330
0
100
AcDbSymbolTable
 70
     1
  0
STYLE
  5
11
330
3
100
AcDbSymbolTableRecord
100
AcDbTextStyleTableRecord
  2
Standard
 70
     0
 40
0.0
 41
1.0
 50
0.0
 71
     0
 42
0.2
  3
txt
  4

  0
ENDTAB
  0
TABLE
  2
VIEW
  5
6
330
0
100
AcDbSymbolTable
 70
     0
  0
ENDTAB
  0
TABLE
  2
UCS
  5
7
330
0
100
AcDbSymbolTable
 70
     0
  0
ENDTAB
  0
TABLE
  2
APPID
  5
9
330
0
100
AcDbSymbolTable
 70
     1
  0
APPID
  5
12
330
9
100
AcDbSymbolTableRecord
100
AcDbRegAppTableRecord
  2
ACAD
 70
     0
  0
ENDTAB
  0
TABLE
  2
DIMSTYLE
  5
A
330
0
100
AcDbSymbolTable
 70
     1
100
AcDbDimStyleTable
  0
DIMSTYLE
105
27
330
A
100
AcDbSymbolTableRecord
100
AcDbDimStyleTableRecord
  2
Standard
 70
     0
178
     0
340
11
  0
ENDTAB
  0
TABLE
  2
BLOCK_RECORD
  5
1
330
0
100
AcDbSymbolTable
 70
     1
  0
BLOCK_RECORD
  5
1F
330
1
100
AcDbSymbolTableRecord
100
AcDbBlockTableRecord
  2
*Model_Space
340
22
 70
     0
280
     1
281
     0
  0
BLOCK_RECORD
  5
1B
330
1
100
AcDbSymbolTableRecord
100
AcDbBlockTableRecord
  2
*Paper_Space
340
1E
 70
     0
280
     1
281
     0
  0
BLOCK_RECORD
  5
23
330
1
100
AcDbSymbolTableRecord
100
AcDbBlockTableRecord
  2
*Paper_Space0
340
26
 70
     0
280
     1
281
     0
  0
ENDTAB
  0
ENDSEC
  0
SECTION
  2
BLOCKS
  0
BLOCK
  5
20
330
1F
100
AcDbEntity
  8
0
100
AcDbBlockBegin
  2
*Model_Space
 70
     0
 10
0.0
 20
0.0
 30
0.0
  3
*Model_Space
  1

  0
ENDBLK
  5
21
330
1F
100
AcDbEntity
  8
0
100
AcDbBlockEnd
  0
BLOCK
  5
1C
330
1B
100
AcDbEntity
 67
     1
  8
0
100
AcDbBlockBegin
  2
*Paper_Space
 70
     0
 10
0.0
 20
0.0
 30
0.0
  3
*Paper_Space
  1

  0
ENDBLK
  5
1D
330
1B
100
AcDbEntity
 67
     1
  8
0
100
AcDbBlockEnd
  0
BLOCK
  5
24
330
23
100
AcDbEntity
  8
0
100
AcDbBlockBegin
  2
*Paper_Space0
 70
     0
 10
0.0
 20
0.0
 30
0.0
  3
*Paper_Space0
  1

  0
ENDBLK
  5
25
330
23
100
AcDbEntity
  8
0
100
AcDbBlockEnd
  0
ENDSEC
  0
SECTION
  2
ENTITIES
  0
SPLINE
  5
41
330
1F
100
AcDbEntity
  8
Layer 1
370
     0
100
AcDbSpline
210
0.0
220
0.0
230
1.0
 70
    11
 71
     3
 72
   122
 73
   118
 74
     0
 42
0.0000000001
 43
0.0000000001
 12
1.0
 22
0.0
 32
0.0
 13
1.0
 23
0.0
 33
0.0
 40
0.0
 40
0.0
 40
0.0
 40
0.0
 40
1.0
 40
1.0
 40
1.0
 40
2.0
 40
2.0
 40
2.0
 40
3.0
 40
3.0
 40
3.0
 40
4.0
 40
4.0
 40
4.0
 40
5.0
 40
5.0
 40
5.0
 40
6.0
 40
6.0
 40
6.0
 40
7.0
 40
7.0
 40
7.0
 40
8.0
 40
8.0
 40
8.0
 40
9.0
 40
9.0
 40
9.0
 40
10.0
 40
10.0
 40
10.0
 40
11.0
 40
11.0
 40
11.0
 40
12.0
 40
12.0
 40
12.0
 40
13.0
 40
13.0
 40
13.0
 40
14.0
 40
14.0
 40
14.0
 40
15.0
 40
15.0
 40
15.0
 40
16.0
 40
16.0
 40
16.0
 40
17.0
 40
17.0
 40
17.0
 40
18.0
 40
18.0
 40
18.0
 40
19.0
 40
19.0
 40
19.0
 40
20.0
 40
20.0
 40
20.0
 40
21.0
 40
21.0
 40
21.0
 40
22.0
 40
22.0
 40
22.0
 40
23.0
 40
23.0
 40
23.0
 40
24.0
 40
24.0
 40
24.0
 40
25.0
 40
25.0
 40
25.0
 40
26.0
 40
26.0
 40
26.0
 40
27.0
 40
27.0
 40
27.0
 40
28.0
 40
28.0
 40
28.0
 40
29.0
 40
29.0
 40
29.0
 40
30.0
 40
30.0
 40
30.0
 40
31.0
 40
31.0
 40
31.0
 40
32.0
 40
32.0
 40
32.0
 40
33.0
 40
33.0
 40
33.0
 40
34.0
 40
34.0
 40
34.0
 40
35.0
 40
35.0
 40
35.0
 40
36.0
 40
36.0
 40
36.0
 40
37.0
 40
37.0
 40
37.0
 40
38.0
 40
38.0
 40
38.0
 40
39.0
 40
39.0
 40
39.0
 40
39.0
 10
709.7183066462858
 20
-23.95599783653324
 30
0.0
 10
709.7183066462858
 20
-23.95599783653324
 30
0.0
 10
709.7148851681759
 20
-23.95599783653324
 30
0.0
 10
709.7148851681759
 20
-23.95599783653324
 30
0.0
 10
668.9867502060588
 20
-18.16571637696416
 30
0.0
 10
630.909120288663
 20
-36.34402959029103
 30
0.0
 10
611.8389417806011
 20
-47.69079150505422
 30
0.0
 10
611.8389417806011
 20
-47.69079150505422
 30
0.0
 10
611.6370745719469
 20
-47.81738619522639
 30
0.0
 10
611.6370745719469
 20
-47.81738619522639
 30
0.0
 10
611.1078859571662
 20
-48.17093893354922
 30
0.0
 10
610.3391938744844
 20
-48.17093893354922
 30
0.0
 10
609.8100052597074
 20
-47.81738619522639
 30
0.0
 10
609.8100052597074
 20
-47.81738619522639
 30
0.0
 10
609.6081380510495
 20
-47.69079150505422
 30
0.0
 10
609.6081380510495
 20
-47.69079150505422
 30
0.0
 10
590.5379595429877
 20
-36.34288909758834
 30
0.0
 10
552.4728750453378
 20
-18.17027834778128
 30
0.0
 10
511.7390376197036
 20
-23.95485734382783
 30
0.0
 10
470.4452182762725
 20
-29.75426274503116
 30
0.0
 10
442.7187001428138
 20
-59.61464272817466
 30
0.0
 10
436.5497751054281
 20
-104.3721384144692
 30
0.0
 10
425.216699103119
 20
-99.39274726763415
 30
0.0
 10
412.0919090624011
 20
-96.7844404529742
 30
0.0
 10
398.1721956068104
 20
-96.7844404529742
 30
0.0
 10
384.2536226439224
 20
-96.7844404529742
 30
0.0
 10
371.1299730959117
 20
-99.39274726763415
 30
0.0
 10
359.7980375863044
 20
-104.3709979217647
 30
0.0
 10
353.6439389540747
 20
-59.6192046989936
 30
0.0
 10
325.9174208206159
 20
-29.75654373043926
 30
0.0
 10
284.6121965501425
 20
-23.95599783653324
 30
0.0
 10
243.8806401099146
 20
-18.16571637696416
 30
0.0
 10
205.8064316706332
 20
-36.34402959029103
 30
0.0
 10
186.7362531625677
 20
-47.69079150505422
 30
0.0
 10
186.7362531625677
 20
-47.69079150505422
 30
0.0
 10
186.5343859539125
 20
-47.81738619522639
 30
0.0
 10
186.5343859539125
 20
-47.81738619522639
 30
0.0
 10
186.0051973391319
 20
-48.17093893354922
 30
0.0
 10
185.2365052564555
 20
-48.17093893354922
 30
0.0
 10
184.7073166416749
 20
-47.81738619522639
 30
0.0
 10
184.7073166416749
 20
-47.81738619522639
 30
0.0
 10
184.5054494330197
 20
-47.69079150505422
 30
0.0
 10
184.5054494330197
 20
-47.69079150505422
 30
0.0
 10
165.4352709249551
 20
-36.34288909758834
 30
0.0
 10
127.3576410075602
 20
-18.16571637696416
 30
0.0
 10
86.64661343600892
 20
-23.95371685112423
 30
0.0
 10
33.23163763161847
 20
-31.33840711125868
 30
0.0
 10
3.606199145552637
 20
-78.38145017690567
 30
0.0
 10
11.17222774566744
 20
-143.796690215604
 30
0.0
 10
14.73284596839221
 20
-174.9013477391036
 30
0.0
 10
35.51376353285832
 20
-217.6937744959441
 30
0.0
 10
65.41634174606043
 20
-255.4919837007928
 30
0.0
 10
79.62802133394507
 20
-273.2984962925293
 30
0.0
 10
122.8732236943788
 20
-327.4867261504141
 30
0.0
 10
175.8377048805833
 20
-337.9758375515676
 30
0.0
 10
175.8377048805833
 20
-337.9758375515676
 30
0.0
 10
176.5368269083001
 20
-338.0590935189784
 30
0.0
 10
176.5368269083001
 20
-338.0590935189784
 30
0.0
 10
176.8983630955527
 20
-338.0830438657686
 30
0.0
 10
177.9829716573113
 20
-338.2050765851254
 30
0.0
 10
179.1656625916366
 20
-338.3339522607084
 30
0.0
 10
182.2712242253583
 20
-338.673819086579
 30
0.0
 10
183.1916018377024
 20
-338.7661989956241
 30
0.0
 10
183.7527242482038
 20
-338.7661989956241
 30
0.0
 10
184.0606572783554
 20
-338.7661989956241
 30
0.0
 10
184.078905161623
 20
-338.7661989956241
 30
0.0
 10
186.9518062836742
 20
-338.4822163122617
 30
0.0
 10
188.7503632783055
 20
-338.3054399431003
 30
0.0
 10
190.896770547738
 20
-338.0898868219938
 30
0.0
 10
191.2263729392716
 20
-338.0647959825001
 30
0.0
 10
191.2263729392716
 20
-338.0647959825001
 30
0.0
 10
192.1342051318688
 20
-337.9758375515676
 30
0.0
 10
192.1342051318688
 20
-337.9758375515676
 30
0.0
 10
272.7134361665148
 20
-322.003237228294
 30
0.0
 10
352.4566860489322
 20
-207.4932077489711
 30
0.0
 10
359.8299713820261
 20
-144.0772514208538
 30
0.0
 10
360.2291438285183
 20
-140.8815908634951
 30
0.0
 10
360.4595233547816
 20
-137.7657647954347
 30
0.0
 10
360.6625310561412
 20
-134.7388971583077
 30
0.0
 10
368.9048718298855
 20
-127.8628666442764
 30
0.0
 10
382.9648658881015
 20
-123.6453246238934
 30
0.0
 10
397.9383946024363
 20
-123.6453246238934
 30
0.0
 10
412.664436399944
 20
-123.6453246238934
 30
0.0
 10
427.0278015174954
 20
-127.9609490168441
 30
0.0
 10
435.2142581487315
 20
-134.7445996218303
 30
0.0
 10
435.4184063427965
 20
-137.7691862735473
 30
0.0
 10
435.6476453763516
 20
-140.8781693853816
 30
0.0
 10
436.0422558520295
 20
-144.0304912199799
 30
0.0
 10
439.604014567456
 20
-175.136289236184
 30
0.0
 10
460.3837916392185
 20
-217.9287159930218
 30
0.0
 10
490.2863698524234
 20
-255.7246442124642
 30
0.0
 10
504.4957684548972
 20
-273.5311568041998
 30
0.0
 10
547.738689829921
 20
-327.7182461693801
 30
0.0
 10
600.7065924942399
 20
-338.2096385559425
 30
0.0
 10
600.7065924942399
 20
-338.2096385559425
 30
0.0
 10
601.4353673322694
 20
-338.294035016057
 30
0.0
 10
601.4353673322694
 20
-338.294035016057
 30
0.0
 10
601.9440270783725
 20
-338.3236878263697
 30
0.0
 10
604.0904343478051
 20
-338.5392409474753
 30
0.0
 10
605.8889913424337
 20
-338.7160173166367
 30
0.0
 10
608.761892464483
 20
-339.0
 30
0.0
 10
608.7801403477533
 20
-339.0
 30
0.0
 10
609.088073377905
 20
-339.0
 30
0.0
 10
609.6491957884064
 20
-339.0
 30
0.0
 10
610.5695734007513
 20
-338.9076200909531
 30
0.0
 10
613.6751350344712
 20
-338.5688937577861
 30
0.0
 10
614.8578259687947
 20
-338.4388775894995
 30
0.0
 10
615.942434530556
 20
-338.3168448701426
 30
0.0
 10
616.0952605529274
 20
-338.2985969868751
 30
0.0
 10
616.0952605529274
 20
-338.2985969868751
 30
0.0
 10
617.0030927455264
 20
-338.2096385559425
 30
0.0
 10
617.0030927455264
 20
-338.2096385559425
 30
0.0
 10
697.5823237801724
 20
-322.237038232669
 30
0.0
 10
777.3255736625888
 20
-207.7270087533452
 30
0.0
 10
784.701139981089
 20
-144.2996474981865
 30
0.0
 10
792.700555808824
 20
-78.8444902148376
 30
0.0
 10
763.26786058978
 20
-31.60642289676343
 30
0.0
 10
709.7183066462858
 20
-23.95599783653324
 30
0.0
  0
SPLINE
  5
42
330
1F
100
AcDbEntity
  8
Layer 1
370
     0
100
AcDbSpline
210
0.0
220
0.0
230
1.0
 70
    11
 71
     3
 72
    62
 73
    58
 74
     0
 42
0.0000000001
 43
0.0000000001
 12
1.0
 22
0.0
 32
0.0
 13
1.0
 23
0.0
 33
0.0
 40
0.0
 40
0.0
 40
0.0
 40
0.0
 40
1.0
 40
1.0
 40
1.0
 40
2.0
 40
2.0
 40
2.0
 40
3.0
 40
3.0
 40
3.0
 40
4.0
 40
4.0
 40
4.0
 40
5.0
 40
5.0
 40
5.0
 40
6.0
 40
6.0
 40
6.0
 40
7.0
 40
7.0
 40
7.0
 40
8.0
 40
8.0
 40
8.0
 40
9.0
 40
9.0
 40
9.0
 40
10.0
 40
10.0
 40
10.0
 40
11.0
 40
11.0
 40
11.0
 40
12.0
 40
12.0
 40
12.0
 40
13.0
 40
13.0
 40
13.0
 40
14.0
 40
14.0
 40
14.0
 40
15.0
 40
15.0
 40
15.0
 40
16.0
 40
16.0
 40
16.0
 40
17.0
 40
17.0
 40
17.0
 40
18.0
 40
18.0
 40
18.0
 40
19.0
 40
19.0
 40
19.0
 40
19.0
 10
605.0986298983771
 20
-311.7114310649795
 30
0.0
 10
544.630847210794
 20
-298.7269216268887
 30
0.0
 10
480.8978339108889
 20
-210.3626873929097
 30
0.0
 10
465.7634957252521
 20
-155.0613366556599
 30
0.0
 10
467.8129611148197
 20
-152.6617400058776
 30
0.0
 10
468.9443298774568
 20
-149.6040790657362
 30
0.0
 10
468.9443298774568
 20
-146.302352686881
 30
0.0
 10
468.9443298774568
 20
-138.7363240867662
 30
0.0
 10
466.5880719504385
 20
-131.343650377702
 30
0.0
 10
461.9371427024344
 20
-124.3056698996634
 30
0.0
 10
462.0546134509732
 20
-103.1769020603961
 30
0.0
 10
467.8768287062594
 20
-56.96641866886512
 30
0.0
 10
515.5984649309466
 20
-50.2591810750655
 30
0.0
 10
549.5874285035425
 20
-45.56947507511541
 30
0.0
 10
583.2764424949146
 20
-62.96655078601998
 30
0.0
 10
596.1560266042143
 20
-70.6489096419682
 30
0.0
 10
605.2868111945809
 20
-76.1837207357803
 30
0.0
 10
616.6312921239332
 20
-76.18143975037401
 30
0.0
 10
625.72900242588
 20
-70.66601703253218
 30
0.0
 10
638.6382393454878
 20
-62.96655078601998
 30
0.0
 10
672.3295343222708
 20
-45.56263211888836
 30
0.0
 10
706.2956880407783
 20
-50.25690008965739
 30
0.0
 10
751.9359250801772
 20
-56.77709687995775
 30
0.0
 10
763.2439102429926
 20
-101.3304443721863
 30
0.0
 10
758.6066669074389
 20
-140.853078545887
 30
0.0
 10
758.6066669074389
 20
-140.853078545887
 30
0.0
 10
758.6066669074389
 20
-140.8553595312978
 30
0.0
 10
758.6066669074389
 20
-140.8553595312978
 30
0.0
 10
752.2928992966099
 20
-194.8804989324708
 30
0.0
 10
679.4382253479707
 20
-297.6993377003428
 30
0.0
 10
613.02505419304
 20
-311.7730176710102
 30
0.0
 10
613.02505419304
 20
-311.7730176710102
 30
0.0
 10
612.5950884435297
 20
-311.8996123611842
 30
0.0
 10
612.5950884435297
 20
-311.8996123611842
 30
0.0
 10
612.4491053773818
 20
-311.909876795522
 30
0.0
 10
612.3008413258285
 20
-311.9041743320013
 30
0.0
 10
612.1252054493707
 20
-311.9053148247058
 30
0.0
 10
612.1252054493707
 20
-311.9053148247058
 30
0.0
 10
611.2082493151411
 20
-311.9965542410464
 30
0.0
 10
611.2082493151411
 20
-311.9965542410464
 30
0.0
 10
610.9003162849876
 20
-312.058140847078
 30
0.0
 10
610.3186650058124
 20
-312.131132380151
 30
0.0
 10
609.2739736887015
 20
-312.1379753363763
 30
0.0
 10
609.2739736887015
 20
-312.1379753363763
 30
0.0
 10
608.9831480491121
 20
-312.10718203336
 30
0.0
 10
608.9831480491121
 20
-312.10718203336
 30
0.0
 10
608.22357990807
 20
-312.0227855732446
 30
0.0
 10
607.0865086819176
 20
-311.9087363028175
 30
0.0
 10
606.3987915812431
 20
-311.9087363028175
 30
0.0
 10
606.3896676396089
 20
-311.9087363028175
 30
0.0
 10
606.3805436979728
 20
-311.9087363028175
 30
0.0
 10
606.3714197563386
 20
-311.9087363028175
 30
0.0
 10
606.24596555887
 20
-311.8961908830715
 30
0.0
 10
606.1250733322195
 20
-311.868819058167
 30
0.0
 10
606.0110240617905
 20
-311.8471496967877
 30
0.0
 10
605.6894051191885
 20
-311.7889845688696
 30
0.0
 10
605.3826125817377
 20
-311.7422243679939
 30
0.0
 10
605.0986298983771
 20
-311.7114310649795
 30
0.0
  0
SPLINE
  5
43
330
1F
100
AcDbEntity
  8
Layer 1
370
     0
100
AcDbSpline
210
0.0
220
0.0
230
1.0
 70
    11
 71
     3
 72
    47
 73
    43
 74
     0
 42
0.0000000001
 43
0.0000000001
 12
1.0
 22
0.0
 32
0.0
 13
1.0
 23
0.0
 33
0.0
 40
0.0
 40
0.0
 40
0.0
 40
0.0
 40
1.0
 40
1.0
 40
1.0
 40
2.0
 40
2.0
 40
2.0
 40
3.0
 40
3.0
 40
3.0
 40
4.0
 40
4.0
 40
4.0
 40
5.0
 40
5.0
 40
5.0
 40
6.0
 40
6.0
 40
6.0
 40
7.0
 40
7.0
 40
7.0
 40
8.0
 40
8.0
 40
8.0
 40
9.0
 40
9.0
 40
9.0
 40
10.0
 40
10.0
 40
10.0
 40
11.0
 40
11.0
 40
11.0
 40
12.0
 40
12.0
 40
12.0
 40
13.0
 40
13.0
 40
13.0
 40
14.0
 40
14.0
 40
14.0
 40
14.0
 10
331.0188446868069
 20
-155.2597823862016
 30
0.0
 10
315.3826897112922
 20
-209.4092354921413
 30
0.0
 10
250.512605185234
 20
-297.1028600160107
 30
0.0
 10
189.4665926965854
 20
-311.3259445309368
 30
0.0
 10
189.4665926965854
 20
-311.3259445309368
 30
0.0
 10
189.3924606708078
 20
-311.3430519215017
 30
0.0
 10
189.3924606708078
 20
-311.3430519215017
 30
0.0
 10
187.9862331664463
 20
-311.6954641671191
 30
0.0
 10
186.3028659349457
 20
-311.9030338392959
 30
0.0
 10
184.6753828459559
 20
-312.1049010479528
 30
0.0
 10
184.6753828459559
 20
-312.1049010479528
 30
0.0
 10
183.8074678980083
 20
-312.1391158290789
 30
0.0
 10
183.8074678980083
 20
-312.1391158290789
 30
0.0
 10
183.8074678980083
 20
-312.1391158290789
 30
0.0
 10
183.5326091562792
 20
-312.1049010479528
 30
0.0
 10
183.5326091562792
 20
-312.1049010479528
 30
0.0
 10
181.9039855745841
 20
-311.9041743320013
 30
0.0
 10
180.2206183430862
 20
-311.6954641671191
 30
0.0
 10
178.7505232472831
 20
-311.3282255163458
 30
0.0
 10
112.4696492460453
 20
-295.7205828584374
 30
0.0
 10
43.9807813693451
 20
-194.0365343313142
 30
0.0
 10
37.73772430618192
 20
-140.853078545887
 30
0.0
 10
30.66324806160719
 20
-80.5495268077184
 30
0.0
 10
60.35027315370371
 20
-54.63639207404594
 30
0.0
 10
90.49577631291413
 20
-50.49298207944048
 30
0.0
 10
124.4824589001018
 20
-45.80099509408137
 30
0.0
 10
158.1748943695848
 20
-63.19921129768954
 30
0.0
 10
171.0533379861781
 20
-70.88271064634318
 30
0.0
 10
180.1841225765475
 20
-76.41752174015619
 30
0.0
 10
191.527463013198
 20
-76.41638124745077
 30
0.0
 10
200.6263138078475
 20
-70.89981803690807
 30
0.0
 10
213.5344102347535
 20
-63.19921129768954
 30
0.0
 10
247.2393911239851
 20
-45.80213558678497
 30
0.0
 10
281.2032638570872
 20
-50.49184158673688
 30
0.0
 10
329.294419717954
 20
-57.24926085952484
 30
0.0
 10
334.8930984032058
 20
-103.3753477909386
 30
0.0
 10
334.882833968868
 20
-124.4881487323473
 30
0.0
 10
330.2877888633711
 20
-131.2558324394731
 30
0.0
 10
327.8665228522104
 20
-138.8469518790807
 30
0.0
 10
327.8665228522104
 20
-146.5350131985515
 30
0.0
 10
327.8665228522104
 20
-149.8207726795472
 30
0.0
 10
328.9876271805051
 20
-152.8647477072391
 30
0.0
 10
331.0188446868069
 20
-155.2597823862016
 30
0.0
  0
HATCH
  5
44
330
1F
100
AcDbEntity
  8
Layer 1
 62
     7
420
 16777215
100
AcDbHatch
 10
0.0
 20
0.0
 30
0.0
210
0.0
220
0.0
230
1.0
  2
SOLID
 70
     1
 71
     0
 91
        3
 92
        1
 93
        1
 72
     4
 94
        3
 73
     0
 74
     1
 95
      122
 96
      118
 40
0.0
 40
0.0
 40
0.0
 40
0.0
 40
1.0
 40
1.0
 40
1.0
 40
2.0
 40
2.0
 40
2.0
 40
3.0
 40
3.0
 40
3.0
 40
4.0
 40
4.0
 40
4.0
 40
5.0
 40
5.0
 40
5.0
 40
6.0
 40
6.0
 40
6.0
 40
7.0
 40
7.0
 40
7.0
 40
8.0
 40
8.0
 40
8.0
 40
9.0
 40
9.0
 40
9.0
 40
10.0
 40
10.0
 40
10.0
 40
11.0
 40
11.0
 40
11.0
 40
12.0
 40
12.0
 40
12.0
 40
13.0
 40
13.0
 40
13.0
 40
14.0
 40
14.0
 40
14.0
 40
15.0
 40
15.0
 40
15.0
 40
16.0
 40
16.0
 40
16.0
 40
17.0
 40
17.0
 40
17.0
 40
18.0
 40
18.0
 40
18.0
 40
19.0
 40
19.0
 40
19.0
 40
20.0
 40
20.0
 40
20.0
 40
21.0
 40
21.0
 40
21.0
 40
22.0
 40
22.0
 40
22.0
 40
23.0
 40
23.0
 40
23.0
 40
24.0
 40
24.0
 40
24.0
 40
25.0
 40
25.0
 40
25.0
 40
26.0
 40
26.0
 40
26.0
 40
27.0
 40
27.0
 40
27.0
 40
28.0
 40
28.0
 40
28.0
 40
29.0
 40
29.0
 40
29.0
 40
30.0
 40
30.0
 40
30.0
 40
31.0
 40
31.0
 40
31.0
 40
32.0
 40
32.0
 40
32.0
 40
33.0
 40
33.0
 40
33.0
 40
34.0
 40
34.0
 40
34.0
 40
35.0
 40
35.0
 40
35.0
 40
36.0
 40
36.0
 40
36.0
 40
37.0
 40
37.0
 40
37.0
 40
38.0
 40
38.0
 40
38.0
 40
39.0
 40
39.0
 40
39.0
 40
39.0
 10
709.7183066462858
 20
-23.95599783653324
 10
709.7183066462858
 20
-23.95599783653324
 10
709.7148851681759
 20
-23.95599783653324
 10
709.7148851681759
 20
-23.95599783653324
 10
668.9867502060588
 20
-18.16571637696416
 10
630.909120288663
 20
-36.34402959029103
 10
611.8389417806011
 20
-47.69079150505422
 10
611.8389417806011
 20
-47.69079150505422
 10
611.6370745719469
 20
-47.81738619522639
 10
611.6370745719469
 20
-47.81738619522639
 10
611.1078859571662
 20
-48.17093893354922
 10
610.3391938744844
 20
-48.17093893354922
 10
609.8100052597074
 20
-47.81738619522639
 10
609.8100052597074
 20
-47.81738619522639
 10
609.6081380510495
 20
-47.69079150505422
 10
609.6081380510495
 20
-47.69079150505422
 10
590.5379595429877
 20
-36.34288909758834
 10
552.4728750453378
 20
-18.17027834778128
 10
511.7390376197036
 20
-23.95485734382783
 10
470.4452182762725
 20
-29.75426274503116
 10
442.7187001428138
 20
-59.61464272817466
 10
436.5497751054281
 20
-104.3721384144692
 10
425.216699103119
 20
-99.39274726763415
 10
412.0919090624011
 20
-96.7844404529742
 10
398.1721956068104
 20
-96.7844404529742
 10
384.2536226439224
 20
-96.7844404529742
 10
371.1299730959117
 20
-99.39274726763415
 10
359.7980375863044
 20
-104.3709979217647
 10
353.6439389540747
 20
-59.6192046989936
 10
325.9174208206159
 20
-29.75654373043926
 10
284.6121965501425
 20
-23.95599783653324
 10
243.8806401099146
 20
-18.16571637696416
 10
205.8064316706332
 20
-36.34402959029103
 10
186.7362531625677
 20
-47.69079150505422
 10
186.7362531625677
 20
-47.69079150505422
 10
186.5343859539125
 20
-47.81738619522639
 10
186.5343859539125
 20
-47.81738619522639
 10
186.0051973391319
 20
-48.17093893354922
 10
185.2365052564555
 20
-48.17093893354922
 10
184.7073166416749
 20
-47.81738619522639
 10
184.7073166416749
 20
-47.81738619522639
 10
184.5054494330197
 20
-47.69079150505422
 10
184.5054494330197
 20
-47.69079150505422
 10
165.4352709249551
 20
-36.34288909758834
 10
127.3576410075602
 20
-18.16571637696416
 10
86.64661343600892
 20
-23.95371685112423
 10
33.23163763161847
 20
-31.33840711125868
 10
3.606199145552637
 20
-78.38145017690567
 10
11.17222774566744
 20
-143.796690215604
 10
14.73284596839221
 20
-174.9013477391036
 10
35.51376353285832
 20
-217.6937744959441
 10
65.41634174606043
 20
-255.4919837007928
 10
79.62802133394507
 20
-273.2984962925293
 10
122.8732236943788
 20
-327.4867261504141
 10
175.8377048805833
 20
-337.9758375515676
 10
175.8377048805833
 20
-337.9758375515676
 10
176.5368269083001
 20
-338.0590935189784
 10
176.5368269083001
 20
-338.0590935189784
 10
176.8983630955527
 20
-338.0830438657686
 10
177.9829716573113
 20
-338.2050765851254
 10
179.1656625916366
 20
-338.3339522607084
 10
182.2712242253583
 20
-338.673819086579
 10
183.1916018377024
 20
-338.7661989956241
 10
183.7527242482038
 20
-338.7661989956241
 10
184.0606572783554
 20
-338.7661989956241
 10
184.078905161623
 20
-338.7661989956241
 10
186.9518062836742
 20
-338.4822163122617
 10
188.7503632783055
 20
-338.3054399431003
 10
190.896770547738
 20
-338.0898868219938
 10
191.2263729392716
 20
-338.0647959825001
 10
191.2263729392716
 20
-338.0647959825001
 10
192.1342051318688
 20
-337.9758375515676
 10
192.1342051318688
 20
-337.9758375515676
 10
272.7134361665148
 20
-322.003237228294
 10
352.4566860489322
 20
-207.4932077489711
 10
359.8299713820261
 20
-144.0772514208538
 10
360.2291438285183
 20
-140.8815908634951
 10
360.4595233547816
 20
-137.7657647954347
 10
360.6625310561412
 20
-134.7388971583077
 10
368.9048718298855
 20
-127.8628666442764
 10
382.9648658881015
 20
-123.6453246238934
 10
397.9383946024363
 20
-123.6453246238934
 10
412.664436399944
 20
-123.6453246238934
 10
427.0278015174954
 20
-127.9609490168441
 10
435.2142581487315
 20
-134.7445996218303
 10
435.4184063427965
 20
-137.7691862735473
 10
435.6476453763516
 20
-140.8781693853816
 10
436.0422558520295
 20
-144.0304912199799
 10
439.604014567456
 20
-175.136289236184
 10
460.3837916392185
 20
-217.9287159930218
 10
490.2863698524234
 20
-255.7246442124642
 10
504.4957684548972
 20
-273.5311568041998
 10
547.738689829921
 20
-327.7182461693801
 10
600.7065924942399
 20
-338.2096385559425
 10
600.7065924942399
 20
-338.2096385559425
 10
601.4353673322694
 20
-338.294035016057
 10
601.4353673322694
 20
-338.294035016057
 10
601.9440270783725
 20
-338.3236878263697
 10
604.0904343478051
 20
-338.5392409474753
 10
605.8889913424337
 20
-338.7160173166367
 10
608.761892464483
 20
-339.0
 10
608.7801403477533
 20
-339.0
 10
609.088073377905
 20
-339.0
 10
609.6491957884064
 20
-339.0
 10
610.5695734007513
 20
-338.9076200909531
 10
613.6751350344712
 20
-338.5688937577861
 10
614.8578259687947
 20
-338.4388775894995
 10
615.942434530556
 20
-338.3168448701426
 10
616.0952605529274
 20
-338.2985969868751
 10
616.0952605529274
 20
-338.2985969868751
 10
617.0030927455264
 20
-338.2096385559425
 10
617.0030927455264
 20
-338.2096385559425
 10
697.5823237801724
 20
-322.237038232669
 10
777.3255736625888
 20
-207.7270087533452
 10
784.701139981089
 20
-144.2996474981865
 10
792.700555808824
 20
-78.8444902148376
 10
763.26786058978
 20
-31.60642289676343
 10
709.7183066462858
 20
-23.95599783653324
 97
        0
 97
        0
 92
        1
 93
        1
 72
     4
 94
        3
 73
     0
 74
     1
 95
       62
 96
       58
 40
0.0
 40
0.0
 40
0.0
 40
0.0
 40
1.0
 40
1.0
 40
1.0
 40
2.0
 40
2.0
 40
2.0
 40
3.0
 40
3.0
 40
3.0
 40
4.0
 40
4.0
 40
4.0
 40
5.0
 40
5.0
 40
5.0
 40
6.0
 40
6.0
 40
6.0
 40
7.0
 40
7.0
 40
7.0
 40
8.0
 40
8.0
 40
8.0
 40
9.0
 40
9.0
 40
9.0
 40
10.0
 40
10.0
 40
10.0
 40
11.0
 40
11.0
 40
11.0
 40
12.0
 40
12.0
 40
12.0
 40
13.0
 40
13.0
 40
13.0
 40
14.0
 40
14.0
 40
14.0
 40
15.0
 40
15.0
 40
15.0
 40
16.0
 40
16.0
 40
16.0
 40
17.0
 40
17.0
 40
17.0
 40
18.0
 40
18.0
 40
18.0
 40
19.0
 40
19.0
 40
19.0
 40
19.0
 10
605.0986298983771
 20
-311.7114310649795
 10
544.630847210794
 20
-298.7269216268887
 10
480.8978339108889
 20
-210.3626873929097
 10
465.7634957252521
 20
-155.0613366556599
 10
467.8129611148197
 20
-152.6617400058776
 10
468.9443298774568
 20
-149.6040790657362
 10
468.9443298774568
 20
-146.302352686881
 10
468.9443298774568
 20
-138.7363240867662
 10
466.5880719504385
 20
-131.343650377702
 10
461.9371427024344
 20
-124.3056698996634
 10
462.0546134509732
 20
-103.1769020603961
 10
467.8768287062594
 20
-56.96641866886512
 10
515.5984649309466
 20
-50.2591810750655
 10
549.5874285035425
 20
-45.56947507511541
 10
583.2764424949146
 20
-62.96655078601998
 10
596.1560266042143
 20
-70.6489096419682
 10
605.2868111945809
 20
-76.1837207357803
 10
616.6312921239332
 20
-76.18143975037401
 10
625.72900242588
 20
-70.66601703253218
 10
638.6382393454878
 20
-62.96655078601998
 10
672.3295343222708
 20
-45.56263211888836
 10
706.2956880407783
 20
-50.25690008965739
 10
751.9359250801772
 20
-56.77709687995775
 10
763.2439102429926
 20
-101.3304443721863
 10
758.6066669074389
 20
-140.853078545887
 10
758.6066669074389
 20
-140.853078545887
 10
758.6066669074389
 20
-140.8553595312978
 10
758.6066669074389
 20
-140.8553595312978
 10
752.2928992966099
 20
-194.8804989324708
 10
679.4382253479707
 20
-297.6993377003428
 10
613.02505419304
 20
-311.7730176710102
 10
613.02505419304
 20
-311.7730176710102
 10
612.5950884435297
 20
-311.8996123611842
 10
612.5950884435297
 20
-311.8996123611842
 10
612.4491053773818
 20
-311.909876795522
 10
612.3008413258285
 20
-311.9041743320013
 10
612.1252054493707
 20
-311.9053148247058
 10
612.1252054493707
 20
-311.9053148247058
 10
611.2082493151411
 20
-311.9965542410464
 10
611.2082493151411
 20
-311.9965542410464
 10
610.9003162849876
 20
-312.058140847078
 10
610.3186650058124
 20
-312.131132380151
 10
609.2739736887015
 20
-312.1379753363763
 10
609.2739736887015
 20
-312.1379753363763
 10
608.9831480491121
 20
-312.10718203336
 10
608.9831480491121
 20
-312.10718203336
 10
608.22357990807
 20
-312.0227855732446
 10
607.0865086819176
 20
-311.9087363028175
 10
606.3987915812431
 20
-311.9087363028175
 10
606.3896676396089
 20
-311.9087363028175
 10
606.3805436979728
 20
-311.9087363028175
 10
606.3714197563386
 20
-311.9087363028175
 10
606.24596555887
 20
-311.8961908830715
 10
606.1250733322195
 20
-311.868819058167
 10
606.0110240617905
 20
-311.8471496967877
 10
605.6894051191885
 20
-311.7889845688696
 10
605.3826125817377
 20
-311.7422243679939
 10
605.0986298983771
 20
-311.7114310649795
 97
        0
 97
        0
 92
        1
 93
        1
 72
     4
 94
        3
 73
     0
 74
     1
 95
       47
 96
       43
 40
0.0
 40
0.0
 40
0.0
 40
0.0
 40
1.0
 40
1.0
 40
1.0
 40
2.0
 40
2.0
 40
2.0
 40
3.0
 40
3.0
 40
3.0
 40
4.0
 40
4.0
 40
4.0
 40
5.0
 40
5.0
 40
5.0
 40
6.0
 40
6.0
 40
6.0
 40
7.0
 40
7.0
 40
7.0
 40
8.0
 40
8.0
 40
8.0
 40
9.0
 40
9.0
 40
9.0
 40
10.0
 40
10.0
 40
10.0
 40
11.0
 40
11.0
 40
11.0
 40
12.0
 40
12.0
 40
12.0
 40
13.0
 40
13.0
 40
13.0
 40
14.0
 40
14.0
 40
14.0
 40
14.0
 10
331.0188446868069
 20
-155.2597823862016
 10
315.3826897112922
 20
-209.4092354921413
 10
250.512605185234
 20
-297.1028600160107
 10
189.4665926965854
 20
-311.3259445309368
 10
189.4665926965854
 20
-311.3259445309368
 10
189.3924606708078
 20
-311.3430519215017
 10
189.3924606708078
 20
-311.3430519215017
 10
187.9862331664463
 20
-311.6954641671191
 10
186.3028659349457
 20
-311.9030338392959
 10
184.6753828459559
 20
-312.1049010479528
 10
184.6753828459559
 20
-312.1049010479528
 10
183.8074678980083
 20
-312.1391158290789
 10
183.8074678980083
 20
-312.1391158290789
 10
183.8074678980083
 20
-312.1391158290789
 10
183.5326091562792
 20
-312.1049010479528
 10
183.5326091562792
 20
-312.1049010479528
 10
181.9039855745841
 20
-311.9041743320013
 10
180.2206183430862
 20
-311.6954641671191
 10
178.7505232472831
 20
-311.3282255163458
 10
112.4696492460453
 20
-295.7205828584374
 10
43.9807813693451
 20
-194.0365343313142
 10
37.73772430618192
 20
-140.853078545887
 10
30.66324806160719
 20
-80.5495268077184
 10
60.35027315370371
 20
-54.63639207404594
 10
90.49577631291413
 20
-50.49298207944048
 10
124.4824589001018
 20
-45.80099509408137
 10
158.1748943695848
 20
-63.19921129768954
 10
171.0533379861781
 20
-70.88271064634318
 10
180.1841225765475
 20
-76.41752174015619
 10
191.527463013198
 20
-76.41638124745077
 10
200.6263138078475
 20
-70.89981803690807
 10
213.5344102347535
 20
-63.19921129768954
 10
247.2393911239851
 20
-45.80213558678497
 10
281.2032638570872
 20
-50.49184158673688
 10
329.294419717954
 20
-57.24926085952484
 10
334.8930984032058
 20
-103.3753477909386
 10
334.882833968868
 20
-124.4881487323473
 10
330.2877888633711
 20
-131.2558324394731
 10
327.8665228522104
 20
-138.8469518790807
 10
327.8665228522104
 20
-146.5350131985515
 10
327.8665228522104
 20
-149.8207726795472
 10
328.9876271805051
 20
-152.8647477072391
 10
331.0188446868069
 20
-155.2597823862016
 97
        0
 97
        0
 75
     2
 76
     1
 98
        0
  0
ENDSEC
  0
SECTION
  2
OBJECTS
  0
DICTIONARY
  5
C
330
0
100
AcDbDictionary
281
     1
  3
ACAD_GROUP
350
D
  3
ACAD_LAYOUT
350
1A
  3
ACAD_MATERIAL
350
3B
  3
ACAD_MLEADERSTYLE
350
46
  3
ACAD_MLINESTYLE
350
17
  3
ACAD_PLOTSETTINGS
350
19
  3
ACAD_PLOTSTYLENAME
350
E
  3
ACAD_TABLESTYLE
350
45
  3
ACAD_VISUALSTYLE
350
2A
  0
SUN
  5
3F
330
29
100
AcDbSun
 90
        1
290
     0
 63
     7
421
 16777215
 40
1.0
291
     1
 91
  2455826
 92
 54000000
292
     0
 70
     2
 71
   256
280
     1
  0
DICTIONARY
  5
D
102
{ACAD_REACTORS
330
C
102
}
330
C
100
AcDbDictionary
281
     1
  0
DICTIONARY
  5
1A
102
{ACAD_REACTORS
330
C
102
}
330
C
100
AcDbDictionary
281
     1
  3
Layout1
350
1E
  3
Layout2
350
26
  3
Model
350
22
  0
DICTIONARY
  5
3B
102
{ACAD_REACTORS
330
C
102
}
330
C
100
AcDbDictionary
281
     1
  3
ByBlock
350
3D
  3
ByLayer
350
3C
  3
Global
350
3E
  0
DICTIONARY
  5
46
102
{ACAD_REACTORS
330
C
102
}
330
C
100
AcDbDictionary
281
     1
  0
DICTIONARY
  5
17
102
{ACAD_REACTORS
330
C
102
}
330
C
100
AcDbDictionary
281
     1
  3
Standard
350
18
  0
DICTIONARY
  5
19
102
{ACAD_REACTORS
330
C
102
}
330
C
100
AcDbDictionary
281
     1
  0
ACDBDICTIONARYWDFLT
  5
E
102
{ACAD_REACTORS
330
C
102
}
330
C
100
AcDbDictionary
281
     1
  3
Normal
350
F
100
AcDbDictionaryWithDefault
340
F
  0
DICTIONARY
  5
45
102
{ACAD_REACTORS
330
C
102
}
330
C
100
AcDbDictionary
281
     1
  0
DICTIONARY
  5
2A
102
{ACAD_REACTORS
330
C
102
}
330
C
100
AcDbDictionary
281
     1
  3
2dWireframe
350
2F
  3
3D Hidden
350
31
  3
3dWireframe
350
30
  3
Basic
350
32
  3
Brighten
350
36
  3
ColorChange
350
3A
  3
Conceptual
350
34
  3
Dim
350
35
  3
Facepattern
350
39
  3
Flat
350
2B
  3
FlatWithEdges
350
2C
  3
Gouraud
350
2D
  3
GouraudWithEdges
350
2E
  3
Linepattern
350
38
  3
Realistic
350
33
  3
Thicken
350
37
  0
LAYOUT
  5
1E
102
{ACAD_REACTORS
330
1A
102
}
330
1A
100
AcDbPlotSettings
  1

  2
none_device
  4

  6

 40
0.0
 41
0.0
 42
0.0
 43
0.0
 44
0.0
 45
0.0
 46
0.0
 47
0.0
 48
0.0
 49
0.0
140
0.0
141
0.0
142
1.0
143
1.0
 70
   688
 72
     0
 73
     0
 74
     5
  7

 75
    16
 76
     0
 77
     2
 78
   300
147
1.0
148
0.0
149
0.0
100
AcDbLayout
  1
Layout1
 70
     1
 71
     1
 10
0.0
 20
0.0
 11
12.0
 21
9.0
 12
0.0
 22
0.0
 32
0.0
 14
1.000000000000000E+20
 24
1.000000000000000E+20
 34
1.000000000000000E+20
 15
-1.000000000000000E+20
 25
-1.000000000000000E+20
 35
-1.000000000000000E+20
146
0.0
 13
0.0
 23
0.0
 33
0.0
 16
1.0
 26
0.0
 36
0.0
 17
0.0
 27
1.0
 37
0.0
 76
     0
330
1B
  0
LAYOUT
  5
26
102
{ACAD_REACTORS
330
1A
102
}
330
1A
100
AcDbPlotSettings
  1

  2
none_device
  4

  6

 40
0.0
 41
0.0
 42
0.0
 43
0.0
 44
0.0
 45
0.0
 46
0.0
 47
0.0
 48
0.0
 49
0.0
140
0.0
141
0.0
142
1.0
143
1.0
 70
   688
 72
     0
 73
     0
 74
     5
  7

 75
    16
 76
     0
 77
     2
 78
   300
147
1.0
148
0.0
149
0.0
100
AcDbLayout
  1
Layout2
 70
     1
 71
     2
 10
0.0
 20
0.0
 11
0.0
 21
0.0
 12
0.0
 22
0.0
 32
0.0
 14
0.0
 24
0.0
 34
0.0
 15
0.0
 25
0.0
 35
0.0
146
0.0
 13
0.0
 23
0.0
 33
0.0
 16
1.0
 26
0.0
 36
0.0
 17
0.0
 27
1.0
 37
0.0
 76
     0
330
23
  0
LAYOUT
  5
22
102
{ACAD_REACTORS
330
1A
102
}
330
1A
100
AcDbPlotSettings
  1

  2
none_device
  4

  6

 40
0.0
 41
0.0
 42
0.0
 43
0.0
 44
0.0
 45
0.0
 46
0.0
 47
0.0
 48
0.0
 49
0.0
140
0.0
141
0.0
142
1.0
143
1.0
 70
  1712
 72
     0
 73
     0
 74
     0
  7

 75
     0
 76
     0
 77
     2
 78
   300
147
1.0
148
0.0
149
0.0
100
AcDbLayout
  1
Model
 70
     1
 71
     0
 10
0.0
 20
0.0
 11
12.0
 21
9.0
 12
0.0
 22
0.0
 32
0.0
 14
1.000000000000000E+20
 24
1.000000000000000E+20
 34
1.000000000000000E+20
 15
-1.000000000000000E+20
 25
-1.000000000000000E+20
 35
-1.000000000000000E+20
146
0.0
 13
0.0
 23
0.0
 33
0.0
 16
1.0
 26
0.0
 36
0.0
 17
0.0
 27
1.0
 37
0.0
 76
     0
330
1F
331
29
  0
MATERIAL
  5
3D
102
{ACAD_REACTORS
330
3B
102
}
330
3B
100
AcDbMaterial
  1
ByBlock
 72
     1
 94
      127
  0
MATERIAL
  5
3C
102
{ACAD_REACTORS
330
3B
102
}
330
3B
100
AcDbMaterial
  1
ByLayer
 72
     1
 94
      127
  0
MATERIAL
  5
3E
102
{ACAD_REACTORS
330
3B
102
}
330
3B
100
AcDbMaterial
  1
Global
 72
     1
 94
      127
  0
MLINESTYLE
  5
18
102
{ACAD_REACTORS
330
17
102
}
330
17
100
AcDbMlineStyle
  2
Standard
 70
     0
  3

 62
   256
 51
90.0
 52
90.0
 71
     2
 49
0.5
 62
   256
  6
BYLAYER
 49
-0.5
 62
   256
  6
BYLAYER
  0
ACDBPLACEHOLDER
  5
F
102
{ACAD_REACTORS
330
E
102
}
330
E
  0
VISUALSTYLE
  5
2F
102
{ACAD_REACTORS
330
2A
102
}
330
2A
100
AcDbVisualStyle
  2
2dWireframe
 70
     4
177
     2
291
     0
 71
     0
176
     1
 72
     2
176
     1
 73
     0
176
     1
 90
        0
176
     1
 40
-0.6
176
     1
 41
-30.0
176
     1
 62
     5
 63
     7
421
 16777215
176
     1
 74
     1
176
     1
 91
        4
176
     1
 64
     7
176
     1
 65
   257
176
     1
 75
     1
176
     1
175
     1
176
     1
 42
1.0
176
     1
 92
        0
176
     1
 66
   257
176
     1
 43
1.0
176
     1
 76
     1
176
     1
 77
     6
176
     1
 78
     2
176
     1
 67
     7
176
     1
 79
     5
176
     1
170
     0
176
     1
171
     0
176
     1
290
     0
176
     1
 93
        1
176
     1
 44
0.0
176
     1
173
     0
176
     1
  0
VISUALSTYLE
  5
31
102
{ACAD_REACTORS
330
2A
102
}
330
2A
100
AcDbVisualStyle
  2
3D Hidden
 70
     6
177
     2
291
     0
 71
     1
176
     1
 72
     2
176
     1
 73
     2
176
     1
 90
        0
176
     1
 40
-0.6
176
     1
 41
-30.0
176
     1
 62
     5
 63
     7
421
 16777215
176
     1
 74
     2
176
     1
 91
        2
176
     1
 64
     7
176
     1
 65
   257
176
     1
 75
     2
176
     1
175
     1
176
     1
 42
40.0
176
     1
 92
        0
176
     1
 66
   257
176
     1
 43
1.0
176
     1
 76
     1
176
     1
 77
     6
176
     1
 78
     2
176
     1
 67
     7
176
     1
 79
     3
176
     1
170
     0
176
     1
171
     0
176
     1
290
     0
176
     1
 93
        1
176
     1
 44
0.0
176
     1
173
     0
176
     1
  0
VISUALSTYLE
  5
30
102
{ACAD_REACTORS
330
2A
102
}
330
2A
100
AcDbVisualStyle
  2
3dWireframe
 70
     5
177
     2
291
     0
 71
     0
176
     1
 72
     2
176
     1
 73
     0
176
     1
 90
        0
176
     1
 40
-0.6
176
     1
 41
-30.0
176
     1
 62
     5
 63
     7
421
 16777215
176
     1
 74
     1
176
     1
 91
        4
176
     1
 64
     7
176
     1
 65
   257
176
     1
 75
     1
176
     1
175
     1
176
     1
 42
1.0
176
     1
 92
        0
176
     1
 66
   257
176
     1
 43
1.0
176
     1
 76
     1
176
     1
 77
     6
176
     1
 78
     2
176
     1
 67
     7
176
     1
 79
     5
176
     1
170
     0
176
     1
171
     0
176
     1
290
     0
176
     1
 93
        1
176
     1
 44
0.0
176
     1
173
     0
176
     1
  0
VISUALSTYLE
  5
32
102
{ACAD_REACTORS
330
2A
102
}
330
2A
100
AcDbVisualStyle
  2
Basic
 70
     7
177
     2
291
     1
 71
     1
176
     1
 72
     0
176
     1
 73
     1
176
     1
 90
        0
176
     1
 40
-0.6
176
     1
 41
-30.0
176
     1
 62
     5
 63
     7
421
 16777215
176
     1
 74
     0
176
     1
 91
        4
176
     1
 64
     7
176
     1
 65
   257
176
     1
 75
     1
176
     1
175
     1
176
     1
 42
1.0
176
     1
 92
        8
176
     1
 66
     7
176
     1
 43
1.0
176
     1
 76
     1
176
     1
 77
     6
176
     1
 78
     2
176
     1
 67
     7
176
     1
 79
     5
176
     1
170
     0
176
     1
171
     0
176
     1
290
     0
176
     1
 93
        1
176
     1
 44
0.0
176
     1
173
     0
176
     1
  0
VISUALSTYLE
  5
36
102
{ACAD_REACTORS
330
2A
102
}
330
2A
100
AcDbVisualStyle
  2
Brighten
 70
    12
177
     2
291
     1
 71
     2
176
     1
 72
     2
176
     1
 73
     0
176
     1
 90
        0
176
     1
 40
-0.6
176
     1
 41
-30.0
176
     1
 62
     5
 63
     7
421
 16777215
176
     1
 74
     1
176
     1
 91
        4
176
     1
 64
     7
176
     1
 65
   257
176
     1
 75
     1
176
     1
175
     1
176
     1
 42
1.0
176
     1
 92
        8
176
     1
 66
     7
176
     1
 43
1.0
176
     1
 76
     1
176
     1
 77
     6
176
     1
 78
     2
176
     1
 67
     7
176
     1
 79
     5
176
     1
170
     0
176
     1
171
     0
176
     1
290
     0
176
     1
 93
        1
176
     1
 44
50.0
176
     1
173
     0
176
     1
  0
VISUALSTYLE
  5
3A
102
{ACAD_REACTORS
330
2A
102
}
330
2A
100
AcDbVisualStyle
  2
ColorChange
 70
    16
177
     2
291
     1
 71
     2
176
     1
 72
     2
176
     1
 73
     3
176
     1
 90
        0
176
     1
 40
-0.6
176
     1
 41
-30.0
176
     1
 62
     5
 63
     8
421
  8421504
176
     1
 74
     1
176
     1
 91
        4
176
     1
 64
     7
176
     1
 65
   257
176
     1
 75
     1
176
     1
175
     1
176
     1
 42
1.0
176
     1
 92
        8
176
     1
 66
     8
424
  8421504
176
     1
 43
1.0
176
     1
 76
     1
176
     1
 77
     6
176
     1
 78
     2
176
     1
 67
     7
176
     1
 79
     5
176
     1
170
     0
176
     1
171
     0
176
     1
290
     0
176
     1
 93
        1
176
     1
 44
0.0
176
     1
173
     0
176
     1
  0
VISUALSTYLE
  5
34
102
{ACAD_REACTORS
330
2A
102
}
330
2A
100
AcDbVisualStyle
  2
Conceptual
 70
     9
177
     2
291
     0
 71
     3
176
     1
 72
     2
176
     1
 73
     0
176
     1
 90
        0
176
     1
 40
-0.6
176
     1
 41
-30.0
176
     1
 62
     5
 63
     7
421
 16777215
176
     1
 74
     2
176
     1
 91
        2
176
     1
 64
     7
176
     1
 65
   257
176
     1
 75
     1
176
     1
175
     1
176
     1
 42
40.0
176
     1
 92
        8
176
     1
 66
     7
176
     1
 43
1.0
176
     1
 76
     1
176
     1
 77
     6
176
     1
 78
     2
176
     1
 67
     7
176
     1
 79
     3
176
     1
170
     0
176
     1
171
     0
176
     1
290
     0
176
     1
 93
        1
176
     1
 44
0.0
176
     1
173
     0
176
     1
  0
VISUALSTYLE
  5
35
102
{ACAD_REACTORS
330
2A
102
}
330
2A
100
AcDbVisualStyle
  2
Dim
 70
    11
177
     2
291
     1
 71
     2
176
     1
 72
     2
176
     1
 73
     0
176
     1
 90
        0
176
     1
 40
-0.6
176
     1
 41
-30.0
176
     1
 62
     5
 63
     7
421
 16777215
176
     1
 74
     1
176
     1
 91
        4
176
     1
 64
     7
176
     1
 65
   257
176
     1
 75
     1
176
     1
175
     1
176
     1
 42
1.0
176
     1
 92
        8
176
     1
 66
     7
176
     1
 43
1.0
176
     1
 76
     1
176
     1
 77
     6
176
     1
 78
     2
176
     1
 67
     7
176
     1
 79
     5
176
     1
170
     0
176
     1
171
     0
176
     1
290
     0
176
     1
 93
        1
176
     1
 44
-50.0
176
     1
173
     0
176
     1
  0
VISUALSTYLE
  5
39
102
{ACAD_REACTORS
330
2A
102
}
330
2A
100
AcDbVisualStyle
  2
Facepattern
 70
    15
177
     2
291
     1
 71
     2
176
     1
 72
     2
176
     1
 73
     0
176
     1
 90
        0
176
     1
 40
-0.6
176
     1
 41
-30.0
176
     1
 62
     5
 63
     7
421
 16777215
176
     1
 74
     1
176
     1
 91
        4
176
     1
 64
     7
176
     1
 65
   257
176
     1
 75
     1
176
     1
175
     1
176
     1
 42
1.0
176
     1
 92
        8
176
     1
 66
     7
176
     1
 43
1.0
176
     1
 76
     1
176
     1
 77
     6
176
     1
 78
     2
176
     1
 67
     7
176
     1
 79
     5
176
     1
170
     0
176
     1
171
     0
176
     1
290
     0
176
     1
 93
        1
176
     1
 44
0.0
176
     1
173
     0
176
     1
  0
VISUALSTYLE
  5
2B
102
{ACAD_REACTORS
330
2A
102
}
330
2A
100
AcDbVisualStyle
  2
Flat
 70
     0
177
     2
291
     1
 71
     2
176
     1
 72
     1
176
     1
 73
     1
176
     1
 90
        2
176
     1
 40
-0.6
176
     1
 41
30.0
176
     1
 62
     5
 63
     7
421
 16777215
176
     1
 74
     0
176
     1
 91
        4
176
     1
 64
     7
176
     1
 65
   257
176
     1
 75
     1
176
     1
175
     1
176
     1
 42
1.0
176
     1
 92
        8
176
     1
 66
     7
176
     1
 43
1.0
176
     1
 76
     1
176
     1
 77
     6
176
     1
 78
     2
176
     1
 67
     7
176
     1
 79
     5
176
     1
170
     0
176
     1
171
     0
176
     1
290
     0
176
     1
 93
       13
176
     1
 44
0.0
176
     1
173
     0
176
     1
  0
VISUALSTYLE
  5
2C
102
{ACAD_REACTORS
330
2A
102
}
330
2A
100
AcDbVisualStyle
  2
FlatWithEdges
 70
     1
177
     2
291
     1
 71
     2
176
     1
 72
     1
176
     1
 73
     1
176
     1
 90
        2
176
     1
 40
-0.6
176
     1
 41
30.0
176
     1
 62
     5
 63
     7
421
 16777215
176
     1
 74
     1
176
     1
 91
        4
176
     1
 64
     7
176
     1
 65
   257
176
     1
 75
     1
176
     1
175
     1
176
     1
 42
1.0
176
     1
 92
        0
176
     1
 66
   257
176
     1
 43
1.0
176
     1
 76
     1
176
     1
 77
     6
176
     1
 78
     2
176
     1
 67
     7
176
     1
 79
     5
176
     1
170
     0
176
     1
171
     0
176
     1
290
     0
176
     1
 93
       13
176
     1
 44
0.0
176
     1
173
     0
176
     1
  0
VISUALSTYLE
  5
2D
102
{ACAD_REACTORS
330
2A
102
}
330
2A
100
AcDbVisualStyle
  2
Gouraud
 70
     2
177
     2
291
     1
 71
     2
176
     1
 72
     2
176
     1
 73
     1
176
     1
 90
        2
176
     1
 40
-0.6
176
     1
 41
30.0
176
     1
 62
     5
 63
     7
421
 16777215
176
     1
 74
     0
176
     1
 91
        4
176
     1
 64
     7
176
     1
 65
   257
176
     1
 75
     1
176
     1
175
     1
176
     1
 42
1.0
176
     1
 92
        0
176
     1
 66
     7
176
     1
 43
1.0
176
     1
 76
     1
176
     1
 77
     6
176
     1
 78
     2
176
     1
 67
     7
176
     1
 79
     5
176
     1
170
     0
176
     1
171
     0
176
     1
290
     0
176
     1
 93
       13
176
     1
 44
0.0
176
     1
173
     0
176
     1
  0
VISUALSTYLE
  5
2E
102
{ACAD_REACTORS
330
2A
102
}
330
2A
100
AcDbVisualStyle
  2
GouraudWithEdges
 70
     3
177
     2
291
     1
 71
     2
176
     1
 72
     2
176
     1
 73
     1
176
     1
 90
        2
176
     1
 40
-0.6
176
     1
 41
30.0
176
     1
 62
     5
 63
     7
421
 16777215
176
     1
 74
     1
176
     1
 91
        4
176
     1
 64
     7
176
     1
 65
   257
176
     1
 75
     1
176
     1
175
     1
176
     1
 42
1.0
176
     1
 92
        0
176
     1
 66
   257
176
     1
 43
1.0
176
     1
 76
     1
176
     1
 77
     6
176
     1
 78
     2
176
     1
 67
     7
176
     1
 79
     5
176
     1
170
     0
176
     1
171
     0
176
     1
290
     0
176
     1
 93
       13
176
     1
 44
0.0
176
     1
173
     0
176
     1
  0
VISUALSTYLE
  5
38
102
{ACAD_REACTORS
330
2A
102
}
330
2A
100
AcDbVisualStyle
  2
Linepattern
 70
    14
177
     2
291
     1
 71
     2
176
     1
 72
     2
176
     1
 73
     0
176
     1
 90
        0
176
     1
 40
-0.6
176
     1
 41
-30.0
176
     1
 62
     5
 63
     7
421
 16777215
176
     1
 74
     1
176
     1
 91
        4
176
     1
 64
     7
176
     1
 65
   257
176
     1
 75
     7
176
     1
175
     7
176
     1
 42
1.0
176
     1
 92
        8
176
     1
 66
     7
176
     1
 43
1.0
176
     1
 76
     1
176
     1
 77
     6
176
     1
 78
     2
176
     1
 67
     7
176
     1
 79
     5
176
     1
170
     0
176
     1
171
     0
176
     1
290
     0
176
     1
 93
        1
176
     1
 44
0.0
176
     1
173
     0
176
     1
  0
VISUALSTYLE
  5
33
102
{ACAD_REACTORS
330
2A
102
}
330
2A
100
AcDbVisualStyle
  2
Realistic
 70
     8
177
     2
291
     0
 71
     2
176
     1
 72
     2
176
     1
 73
     0
176
     1
 90
        0
176
     1
 40
-0.6
176
     1
 41
-30.0
176
     1
 62
     5
 63
     7
421
 16777215
176
     1
 74
     1
176
     1
 91
        0
176
     1
 64
     7
176
     1
 65
   257
176
     1
 75
     1
176
     1
175
     1
176
     1
 42
1.0
176
     1
 92
        8
176
     1
 66
     8
424
  7895160
176
     1
 43
1.0
176
     1
 76
     1
176
     1
 77
     6
176
     1
 78
     2
176
     1
 67
     7
176
     1
 79
     5
176
     1
170
     0
176
     1
171
     0
176
     1
290
     0
176
     1
 93
       13
176
     1
 44
0.0
176
     1
173
     0
176
     1
  0
VISUALSTYLE
  5
37
102
{ACAD_REACTORS
330
2A
102
}
330
2A
100
AcDbVisualStyle
  2
Thicken
 70
    13
177
     2
291
     1
 71
     2
176
     1
 72
     2
176
     1
 73
     0
176
     1
 90
        0
176
     1
 40
-0.6
176
     1
 41
-30.0
176
     1
 62
     5
 63
     7
421
 16777215
176
     1
 74
     1
176
     1
 91
        4
176
     1
 64
     7
176
     1
 65
   257
176
     1
 75
     1
176
     1
175
     1
176
     1
 42
1.0
176
     1
 92
       12
176
     1
 66
     7
176
     1
 43
1.0
176
     1
 76
     1
176
     1
 77
     6
176
     1
 78
     2
176
     1
 67
     7
176
     1
 79
     5
176
     1
170
     0
176
     1
171
     0
176
     1
290
     0
176
     1
 93
        1
176
     1
 44
0.0
176
     1
173
     0
176
     1
  0
ENDSEC
  0
EOF
